<mxfile host="app.diagrams.net" modified="2024-03-13T09:11:55.363Z" agent="Mozilla/5.0 (Windows NT 10.0; Win64; x64) AppleWebKit/537.36 (KHTML, like Gecko) Chrome/122.0.0.0 Safari/537.36" etag="oaTWtSo0fk_SrUtxd6hJ" version="24.0.5" type="device">
  <diagram name="Pagina-1" id="bbO6o_b102r_QZ4AHPoF">
    <mxGraphModel dx="1949" dy="696" grid="1" gridSize="10" guides="1" tooltips="1" connect="1" arrows="1" fold="1" page="1" pageScale="1" pageWidth="827" pageHeight="1169" math="0" shadow="0">
      <root>
        <mxCell id="0" />
        <mxCell id="1" parent="0" />
        <mxCell id="8TyWitUwN9cBnj755GWz-14" style="edgeStyle=orthogonalEdgeStyle;rounded=0;orthogonalLoop=1;jettySize=auto;html=1;" edge="1" parent="1" source="8TyWitUwN9cBnj755GWz-1">
          <mxGeometry relative="1" as="geometry">
            <mxPoint x="740" y="357.9999999999999" as="targetPoint" />
          </mxGeometry>
        </mxCell>
        <mxCell id="8TyWitUwN9cBnj755GWz-23" style="edgeStyle=orthogonalEdgeStyle;rounded=0;orthogonalLoop=1;jettySize=auto;html=1;" edge="1" parent="1" source="8TyWitUwN9cBnj755GWz-1" target="8TyWitUwN9cBnj755GWz-24">
          <mxGeometry relative="1" as="geometry">
            <mxPoint x="420" y="560" as="targetPoint" />
          </mxGeometry>
        </mxCell>
        <mxCell id="8TyWitUwN9cBnj755GWz-1" value="" style="rounded=0;whiteSpace=wrap;html=1;" vertex="1" parent="1">
          <mxGeometry x="240" y="268" width="360" height="180" as="geometry" />
        </mxCell>
        <mxCell id="8TyWitUwN9cBnj755GWz-2" value="pagina inziale" style="text;html=1;align=center;verticalAlign=middle;resizable=0;points=[];autosize=1;strokeColor=none;fillColor=none;" vertex="1" parent="1">
          <mxGeometry x="360" y="238" width="100" height="30" as="geometry" />
        </mxCell>
        <mxCell id="8TyWitUwN9cBnj755GWz-4" value="" style="rounded=0;whiteSpace=wrap;html=1;" vertex="1" parent="1">
          <mxGeometry x="370" y="310" width="100" height="20" as="geometry" />
        </mxCell>
        <mxCell id="8TyWitUwN9cBnj755GWz-5" value="" style="rounded=0;whiteSpace=wrap;html=1;" vertex="1" parent="1">
          <mxGeometry x="370" y="360" width="100" height="20" as="geometry" />
        </mxCell>
        <mxCell id="8TyWitUwN9cBnj755GWz-6" value="Nome utente" style="text;html=1;align=center;verticalAlign=middle;whiteSpace=wrap;rounded=0;" vertex="1" parent="1">
          <mxGeometry x="374" y="280" width="80" height="30" as="geometry" />
        </mxCell>
        <mxCell id="8TyWitUwN9cBnj755GWz-8" value="password" style="text;html=1;align=center;verticalAlign=middle;whiteSpace=wrap;rounded=0;" vertex="1" parent="1">
          <mxGeometry x="390" y="330" width="60" height="30" as="geometry" />
        </mxCell>
        <mxCell id="8TyWitUwN9cBnj755GWz-9" value="" style="ellipse;whiteSpace=wrap;html=1;aspect=fixed;" vertex="1" parent="1">
          <mxGeometry x="380" y="390" width="20" height="20" as="geometry" />
        </mxCell>
        <mxCell id="8TyWitUwN9cBnj755GWz-11" value="entra" style="text;html=1;align=center;verticalAlign=middle;whiteSpace=wrap;rounded=0;" vertex="1" parent="1">
          <mxGeometry x="370" y="410" width="40" height="20" as="geometry" />
        </mxCell>
        <mxCell id="8TyWitUwN9cBnj755GWz-12" value="" style="ellipse;whiteSpace=wrap;html=1;aspect=fixed;" vertex="1" parent="1">
          <mxGeometry x="438" y="390" width="22" height="22" as="geometry" />
        </mxCell>
        <mxCell id="8TyWitUwN9cBnj755GWz-13" value="registrati" style="text;html=1;align=center;verticalAlign=middle;whiteSpace=wrap;rounded=0;" vertex="1" parent="1">
          <mxGeometry x="419" y="405" width="60" height="30" as="geometry" />
        </mxCell>
        <mxCell id="8TyWitUwN9cBnj755GWz-15" value="" style="rounded=0;whiteSpace=wrap;html=1;" vertex="1" parent="1">
          <mxGeometry x="740" y="270" width="230" height="170" as="geometry" />
        </mxCell>
        <mxCell id="8TyWitUwN9cBnj755GWz-16" value="pagina di registrazione" style="text;html=1;align=center;verticalAlign=middle;whiteSpace=wrap;rounded=0;" vertex="1" parent="1">
          <mxGeometry x="740" y="238" width="180" height="30" as="geometry" />
        </mxCell>
        <mxCell id="8TyWitUwN9cBnj755GWz-17" value="" style="rounded=0;whiteSpace=wrap;html=1;" vertex="1" parent="1">
          <mxGeometry x="780" y="305" width="160" height="30" as="geometry" />
        </mxCell>
        <mxCell id="8TyWitUwN9cBnj755GWz-18" value="nome utente" style="text;html=1;align=center;verticalAlign=middle;whiteSpace=wrap;rounded=0;" vertex="1" parent="1">
          <mxGeometry x="800" y="275" width="80" height="30" as="geometry" />
        </mxCell>
        <mxCell id="8TyWitUwN9cBnj755GWz-19" value="" style="rounded=0;whiteSpace=wrap;html=1;" vertex="1" parent="1">
          <mxGeometry x="780" y="360" width="150" height="28" as="geometry" />
        </mxCell>
        <mxCell id="8TyWitUwN9cBnj755GWz-20" value="password" style="text;html=1;align=center;verticalAlign=middle;whiteSpace=wrap;rounded=0;" vertex="1" parent="1">
          <mxGeometry x="827" y="332" width="60" height="30" as="geometry" />
        </mxCell>
        <mxCell id="8TyWitUwN9cBnj755GWz-21" value="invia" style="ellipse;whiteSpace=wrap;html=1;aspect=fixed;" vertex="1" parent="1">
          <mxGeometry x="845" y="400" width="30" height="30" as="geometry" />
        </mxCell>
        <mxCell id="8TyWitUwN9cBnj755GWz-30" style="edgeStyle=orthogonalEdgeStyle;rounded=0;orthogonalLoop=1;jettySize=auto;html=1;" edge="1" parent="1" source="8TyWitUwN9cBnj755GWz-24" target="8TyWitUwN9cBnj755GWz-31">
          <mxGeometry relative="1" as="geometry">
            <mxPoint x="140" y="640" as="targetPoint" />
          </mxGeometry>
        </mxCell>
        <mxCell id="8TyWitUwN9cBnj755GWz-24" value="" style="rounded=0;whiteSpace=wrap;html=1;" vertex="1" parent="1">
          <mxGeometry x="270" y="530" width="300" height="220" as="geometry" />
        </mxCell>
        <mxCell id="8TyWitUwN9cBnj755GWz-25" value="g1" style="ellipse;whiteSpace=wrap;html=1;" vertex="1" parent="1">
          <mxGeometry x="285" y="570" width="105" height="70" as="geometry" />
        </mxCell>
        <mxCell id="8TyWitUwN9cBnj755GWz-26" value="g2" style="ellipse;whiteSpace=wrap;html=1;" vertex="1" parent="1">
          <mxGeometry x="450" y="574" width="99" height="66" as="geometry" />
        </mxCell>
        <mxCell id="8TyWitUwN9cBnj755GWz-27" value="classifica&amp;nbsp;" style="whiteSpace=wrap;html=1;aspect=fixed;" vertex="1" parent="1">
          <mxGeometry x="294" y="650" width="80" height="80" as="geometry" />
        </mxCell>
        <mxCell id="8TyWitUwN9cBnj755GWz-29" value="classifica" style="whiteSpace=wrap;html=1;aspect=fixed;" vertex="1" parent="1">
          <mxGeometry x="460" y="650" width="80" height="80" as="geometry" />
        </mxCell>
        <mxCell id="8TyWitUwN9cBnj755GWz-32" style="edgeStyle=orthogonalEdgeStyle;rounded=0;orthogonalLoop=1;jettySize=auto;html=1;" edge="1" parent="1" source="8TyWitUwN9cBnj755GWz-31">
          <mxGeometry relative="1" as="geometry">
            <mxPoint x="350" y="760" as="targetPoint" />
            <Array as="points">
              <mxPoint x="110" y="840" />
              <mxPoint x="350" y="840" />
            </Array>
          </mxGeometry>
        </mxCell>
        <mxCell id="8TyWitUwN9cBnj755GWz-35" style="edgeStyle=orthogonalEdgeStyle;rounded=0;orthogonalLoop=1;jettySize=auto;html=1;entryX=0.4;entryY=-0.071;entryDx=0;entryDy=0;entryPerimeter=0;" edge="1" parent="1" source="8TyWitUwN9cBnj755GWz-31" target="8TyWitUwN9cBnj755GWz-31">
          <mxGeometry relative="1" as="geometry">
            <mxPoint x="100" y="580" as="targetPoint" />
            <Array as="points">
              <mxPoint x="-20" y="640" />
              <mxPoint x="-20" y="580" />
              <mxPoint x="98" y="580" />
            </Array>
          </mxGeometry>
        </mxCell>
        <mxCell id="8TyWitUwN9cBnj755GWz-31" value="pagina gioco" style="rounded=0;whiteSpace=wrap;html=1;" vertex="1" parent="1">
          <mxGeometry x="50" y="610" width="120" height="60" as="geometry" />
        </mxCell>
        <mxCell id="8TyWitUwN9cBnj755GWz-36" value="- nome utente&lt;div&gt;- password&lt;/div&gt;" style="shape=cylinder3;whiteSpace=wrap;html=1;boundedLbl=1;backgroundOutline=1;size=15;" vertex="1" parent="1">
          <mxGeometry x="700" y="494" width="139.5" height="186" as="geometry" />
        </mxCell>
        <mxCell id="8TyWitUwN9cBnj755GWz-37" value="DB utenti" style="text;html=1;align=center;verticalAlign=middle;whiteSpace=wrap;rounded=0;" vertex="1" parent="1">
          <mxGeometry x="750" y="690" width="60" height="30" as="geometry" />
        </mxCell>
        <mxCell id="8TyWitUwN9cBnj755GWz-39" value="-punteggio&lt;div&gt;-nome utente&lt;/div&gt;&lt;div&gt;- data&lt;/div&gt;" style="shape=cylinder3;whiteSpace=wrap;html=1;boundedLbl=1;backgroundOutline=1;size=15;" vertex="1" parent="1">
          <mxGeometry x="875" y="494" width="139.5" height="186" as="geometry" />
        </mxCell>
        <mxCell id="8TyWitUwN9cBnj755GWz-40" value="Db per ogni gioco" style="text;html=1;align=center;verticalAlign=middle;resizable=0;points=[];autosize=1;strokeColor=none;fillColor=none;" vertex="1" parent="1">
          <mxGeometry x="887" y="690" width="120" height="30" as="geometry" />
        </mxCell>
      </root>
    </mxGraphModel>
  </diagram>
</mxfile>
